<svg width="512" height="512" viewBox="0 0 512 512" fill="none" xmlns="http://www.w3.org/2000/svg">
<g clip-path="url(#clip0_1103_3)">
<path d="M345.286 384.785H153.958M153.958 384.785L192.224 346.52M153.958 384.785L192.225 423.052M166.714 282.744H358.042M358.042 282.744L319.777 244.479M358.042 282.744L319.777 321.009" stroke="black" stroke-width="25.5104" stroke-linecap="round" stroke-linejoin="round"/>
<path d="M19 177H493M124.333 19V71.6667M387.667 19V71.6667M103.267 493H408.733C438.229 493 452.979 493 464.244 487.259C474.153 482.211 482.211 474.153 487.259 464.244C493 452.979 493 438.229 493 408.733V155.933C493 126.437 493 111.689 487.259 100.423C482.211 90.5132 474.153 82.4562 464.244 77.4071C452.979 71.6667 438.229 71.6667 408.733 71.6667H103.267C73.7707 71.6667 59.0225 71.6667 47.7565 77.4071C37.8465 82.4562 29.7896 90.5132 24.7404 100.423C19 111.689 19 126.437 19 155.933V408.733C19 438.229 19 452.979 24.7404 464.244C29.7896 474.153 37.8465 482.211 47.7565 487.259C59.0225 493 73.7704 493 103.267 493Z" stroke="black" stroke-width="30.8594" stroke-linecap="round" stroke-linejoin="round"/>
</g>
<defs>
<clipPath id="clip0_1103_3">
<rect width="512" height="512" fill="white"/>
</clipPath>
</defs>
</svg>
